PathFileType	4	(X/Y/Z)	./resultDataOpenSim/trcMotMarkerGrf/sub06/qtm-13-01.trc
DataRate	CameraRate	NumFrames	NumMarkers	Units	OrigDataRate	OrigDataStartFrame	OrigNumFrames
250.000000	250.000000	6	24	m	250.000000	346	553
Frame#	Time	L.Toe.Tip			R.Toe.Tip			L.Ankle.Lat			R.Ankle.Lat			L.Ankle.Med			R.Ankle.Med			L.Heel			R.Heel			L.Knee.Lat			R.Knee.Lat			L.Knee.Med			R.Knee.Med			L.Thigh.Upper			R.Thigh.Upper			L.ASIS			R.ASIS			V.Sacral			L.Acromium			R.Acromium			C7			L.Elbow			R.Elbow			L.Wrist.Lat			R.Wrist.Lat
		X1	Y1	Z1	X2	Y2	Z2	X3	Y3	Z3	X4	Y4	Z4	X5	Y5	Z5	X6	Y6	Z6	X7	Y7	Z7	X8	Y8	Z8	X9	Y9	Z9	X10	Y10	Z10	X11	Y11	Z11	X12	Y12	Z12	X13	Y13	Z13	X14	Y14	Z14	X15	Y15	Z15	X16	Y16	Z16	X17	Y17	Z17	X18	Y18	Z18	X19	Y19	Z19	X20	Y20	Z20	X21	Y21	Z21	X22	Y22	Z22	X23	Y23	Z23	X24	Y24	Z24

346	1.38	0.54036056	0.11758234	-0.12439346	0.86174478	0.034143029	0.042799428	0.51528405	0.24458402	-0.13332297	0.72592907	0.063711266	0.071162321	0.5445663	0.24235928	-0.05300076	0.74797749	0.08321397	-0.016635301	0.46352618	0.28788953	-0.071697537	0.66882684	0.045712899	0.013881159	0.84602202	0.40987811	-0.18900418	0.86461493	0.42669195	0.10896724	0.85410684	0.39608155	-0.06162013	0.81996962	0.42541527	-0.011070763	0.7122778	0.77886248	-0.152018	0.78483409	0.79448948	0.18635394	0.79145079	0.83221386	-0.12655426	0.8525886	0.85100322	0.11276424	0.63806172	0.91327112	0.039100446	0.76311864	1.3382147	-0.16205448	0.80870079	1.2959868	0.18758053	0.70917429	1.3578608	0.026103674	0.77297771	1.0194972	-0.26098647	0.77004205	0.97867639	0.26777943	0.99853763	0.9197818	-0.23152066	0.99648338	0.86734291	0.27985115
347	1.384	0.55452989	0.11691442	-0.12569502	0.8617017	0.034147109	0.042788675	0.52686394	0.24327878	-0.13424105	0.72597469	0.064138953	0.071447786	0.55591965	0.24146798	-0.053824837	0.74792596	0.083805688	-0.016272678	0.47401038	0.28548611	-0.072800627	0.66884847	0.046262039	0.014152844	0.855408	0.41349443	-0.18847874	0.86445969	0.42741012	0.10908629	0.86293769	0.39995721	-0.06085893	0.81990506	0.42637693	-0.010704999	0.71864778	0.7817542	-0.15256244	0.78901806	0.7961751	0.18653071	0.79712753	0.83505224	-0.1265398	0.85706808	0.85288226	0.11280577	0.64311192	0.91549979	0.038582168	0.76824901	1.3402574	-0.16210841	0.81353912	1.2990097	0.18747185	0.71394424	1.3602105	0.026093962	0.77438193	1.021491	-0.2597754	0.77805587	0.98109705	0.26743724	0.99743686	0.9155216	-0.23388506	1.0074691	0.87505735	0.27503009
348	1.388	0.56889756	0.1160975	-0.12698915	0.86164922	0.034146419	0.042797835	0.53852261	0.24174445	-0.13516089	0.72603553	0.064600718	0.071771627	0.56727783	0.24036916	-0.054600787	0.7478837	0.084421217	-0.015851023	0.48457068	0.28281561	-0.073920522	0.66881702	0.0468561	0.01449645	0.86474185	0.4170929	-0.18787706	0.86428273	0.4281532	0.10923784	0.87181551	0.40383097	-0.060135283	0.81925888	0.42746282	-0.010479661	0.72499783	0.784648	-0.15311963	0.7930706	0.79789609	0.18630947	0.80290807	0.83796221	-0.12639036	0.86144184	0.85466799	0.1128838	0.64820973	0.91766654	0.038082933	0.77333295	1.3422744	-0.16215844	0.81842734	1.3019912	0.18733226	0.7187023	1.362521	0.026079893	0.77581459	1.0235322	-0.25858959	0.7860074	0.98356621	0.26716905	0.99616203	0.91140818	-0.23625943	1.0181969	0.88286502	0.2701774
349	1.392	0.58343135	0.11512572	-0.12824748	0.86157887	0.034140836	0.042830874	0.55029416	0.2399554	-0.13611573	0.72610477	0.065087988	0.07212356	0.57864997	0.23906787	-0.055341059	0.74785545	0.085057722	-0.015393251	0.49521153	0.27989282	-0.075064212	0.66875509	0.04750096	0.014901183	0.87401016	0.42065549	-0.18717912	0.86409628	0.42892392	0.10942424	0.88079855	0.40770313	-0.059434231	0.8179345	0.42866976	-0.010399744	0.73131793	0.78754566	-0.15369437	0.79706581	0.7996649	0.18562969	0.80861699	0.84094192	-0.12601868	0.86575713	0.85638735	0.11297851	0.65335103	0.91977143	0.0375977	0.77837121	1.3442632	-0.16221413	0.82335909	1.3049262	0.18716887	0.72345312	1.3647778	0.026042332	0.77728641	1.0256081	-0.2574305	0.79398119	0.98607317	0.26694896	0.99471712	0.90745027	-0.23863443	1.0287675	0.89081685	0.26532326
350	1.396	0.59810904	0.11401904	-0.12946294	0.86149418	0.03413647	0.042882367	0.56220016	0.23790736	-0.13711347	0.72617993	0.065608806	0.072509683	0.59003193	0.23756663	-0.056070115	0.74782486	0.085710921	-0.014912831	0.5058994	0.27672048	-0.076210957	0.66871882	0.048222077	0.015352638	0.88315174	0.4241732	-0.18641033	0.86392177	0.42972903	0.10964853	0.88981221	0.41156652	-0.058718189	0.81670265	0.42987433	-0.010383833	0.73762417	0.79044331	-0.15426335	0.80102383	0.80138492	0.18483443	0.81399351	0.84389883	-0.12549889	0.87016749	0.85812298	0.11301996	0.65855317	0.92184383	0.03704406	0.78336484	1.3462171	-0.16228126	0.828322	1.3078079	0.18698317	0.72819907	1.3669747	0.025979299	0.77879167	1.0277105	-0.25629175	0.80203426	0.98859969	0.26677285	0.99310349	0.90364972	-0.2410096	1.0392148	0.89893753	0.26047278
351	1.4	0.61288976	0.11280733	-0.13063341	0.86140862	0.034141049	0.042944019	0.57421102	0.23564501	-0.13812206	0.72627291	0.066178374	0.072946185	0.60145896	0.23586762	-0.056811818	0.7477759	0.086381325	-0.01439696	0.51661105	0.27328893	-0.077331077	0.66874083	0.049055221	0.015851808	0.89209248	0.42763876	-0.1856135	0.86378272	0.4305777	0.10991559	0.8987045	0.41540585	-0.057959465	0.81621117	0.4309332	-0.010357858	0.74392928	0.79332703	-0.15481705	0.80490992	0.8029599	0.18423555	0.81908864	0.84675574	-0.12500636	0.8747853	0.85992506	0.11295808	0.66376563	0.92393833	0.036408868	0.78831454	1.3481278	-0.16235419	0.83330004	1.310629	0.18677395	0.73294259	1.3691137	0.025899982	0.78032186	1.0298321	-0.25516519	0.81015472	0.99112611	0.26665989	0.99131692	0.90000871	-0.2433953	1.0494659	0.90719171	0.25559991
